<mxfile host="app.diagrams.net" agent="Mozilla/5.0 (Macintosh; Intel Mac OS X 10_15_7) AppleWebKit/605.1.15 (KHTML, like Gecko) Version/18.0 Safari/605.1.15" version="24.7.13">
  <diagram name="Page-1" id="bKAiuHTfeIk1YZlweiKr">
    <mxGraphModel dx="1590" dy="1125" grid="1" gridSize="10" guides="1" tooltips="1" connect="1" arrows="1" fold="1" page="1" pageScale="1" pageWidth="827" pageHeight="1169" math="0" shadow="0">
      <root>
        <mxCell id="0" />
        <mxCell id="1" parent="0" />
        <mxCell id="yl8OOn2uJS8dKnShgbuV-129" value="" style="rounded=0;whiteSpace=wrap;html=1;fontSize=16;" parent="1" vertex="1">
          <mxGeometry x="81" y="880" width="1160" height="180" as="geometry" />
        </mxCell>
        <mxCell id="yl8OOn2uJS8dKnShgbuV-89" style="edgeStyle=orthogonalEdgeStyle;rounded=0;orthogonalLoop=1;jettySize=auto;html=1;fontSize=16;" parent="1" source="yl8OOn2uJS8dKnShgbuV-37" target="yl8OOn2uJS8dKnShgbuV-43" edge="1">
          <mxGeometry relative="1" as="geometry" />
        </mxCell>
        <mxCell id="yl8OOn2uJS8dKnShgbuV-37" value="&lt;font style=&quot;font-size: 16px;&quot; face=&quot;Courier New&quot;&gt;src/data_api.py&lt;/font&gt;" style="rounded=1;whiteSpace=wrap;html=1;fontSize=16;fillColor=#cdeb8b;strokeColor=#36393d;strokeWidth=1;" parent="1" vertex="1">
          <mxGeometry x="1041" y="160" width="160" height="40" as="geometry" />
        </mxCell>
        <mxCell id="yl8OOn2uJS8dKnShgbuV-99" style="edgeStyle=orthogonalEdgeStyle;rounded=0;orthogonalLoop=1;jettySize=auto;html=1;exitX=0.25;exitY=1;exitDx=0;exitDy=0;entryX=0;entryY=0.75;entryDx=0;entryDy=0;fontSize=16;" parent="1" source="yl8OOn2uJS8dKnShgbuV-38" target="yl8OOn2uJS8dKnShgbuV-44" edge="1">
          <mxGeometry relative="1" as="geometry">
            <mxPoint x="80" y="960" as="targetPoint" />
          </mxGeometry>
        </mxCell>
        <mxCell id="z5oKEGdk7ufxL6Iy2v38-7" style="edgeStyle=orthogonalEdgeStyle;rounded=0;orthogonalLoop=1;jettySize=auto;html=1;exitX=0.75;exitY=1;exitDx=0;exitDy=0;entryX=0.25;entryY=0;entryDx=0;entryDy=0;" edge="1" parent="1" source="yl8OOn2uJS8dKnShgbuV-38" target="yl8OOn2uJS8dKnShgbuV-42">
          <mxGeometry relative="1" as="geometry" />
        </mxCell>
        <mxCell id="yl8OOn2uJS8dKnShgbuV-38" value="&lt;font style=&quot;font-size: 16px;&quot; face=&quot;Courier New&quot;&gt;src/pythagoras_api.py&lt;/font&gt;" style="rounded=1;whiteSpace=wrap;html=1;fontSize=16;fillColor=#cdeb8b;strokeColor=#36393d;strokeWidth=1;" parent="1" vertex="1">
          <mxGeometry x="20" y="160" width="220" height="40" as="geometry" />
        </mxCell>
        <mxCell id="yl8OOn2uJS8dKnShgbuV-124" style="edgeStyle=orthogonalEdgeStyle;rounded=0;orthogonalLoop=1;jettySize=auto;html=1;exitX=0.25;exitY=1;exitDx=0;exitDy=0;entryX=0.75;entryY=0;entryDx=0;entryDy=0;fontSize=16;" parent="1" source="yl8OOn2uJS8dKnShgbuV-39" target="yl8OOn2uJS8dKnShgbuV-40" edge="1">
          <mxGeometry relative="1" as="geometry" />
        </mxCell>
        <mxCell id="yl8OOn2uJS8dKnShgbuV-39" value="&lt;font style=&quot;font-size: 16px;&quot; face=&quot;Courier New&quot;&gt;src/client_api.py&lt;/font&gt;" style="rounded=1;whiteSpace=wrap;html=1;fillColor=#ffcccc;strokeColor=#36393d;fontSize=16;" parent="1" vertex="1">
          <mxGeometry x="1370" y="160" width="200" height="40" as="geometry" />
        </mxCell>
        <mxCell id="yl8OOn2uJS8dKnShgbuV-125" style="edgeStyle=orthogonalEdgeStyle;rounded=0;orthogonalLoop=1;jettySize=auto;html=1;exitX=0.75;exitY=0;exitDx=0;exitDy=0;entryX=0.25;entryY=1;entryDx=0;entryDy=0;fontSize=16;" parent="1" source="yl8OOn2uJS8dKnShgbuV-40" target="yl8OOn2uJS8dKnShgbuV-39" edge="1">
          <mxGeometry relative="1" as="geometry" />
        </mxCell>
        <mxCell id="yl8OOn2uJS8dKnShgbuV-40" value="&lt;font style=&quot;font-size: 16px;&quot; face=&quot;Courier New&quot;&gt;src/density_map.py&lt;/font&gt;" style="rounded=1;whiteSpace=wrap;html=1;fillColor=#eeeeee;strokeColor=#36393d;fontSize=16;" parent="1" vertex="1">
          <mxGeometry x="1270" y="240" width="200" height="40" as="geometry" />
        </mxCell>
        <mxCell id="yl8OOn2uJS8dKnShgbuV-92" style="edgeStyle=orthogonalEdgeStyle;rounded=0;orthogonalLoop=1;jettySize=auto;html=1;fontSize=16;" parent="1" source="yl8OOn2uJS8dKnShgbuV-41" target="yl8OOn2uJS8dKnShgbuV-43" edge="1">
          <mxGeometry relative="1" as="geometry" />
        </mxCell>
        <mxCell id="yl8OOn2uJS8dKnShgbuV-41" value="&lt;font style=&quot;font-size: 16px;&quot; face=&quot;Courier New&quot;&gt;src/device.py&lt;/font&gt;" style="rounded=1;whiteSpace=wrap;html=1;fillColor=#eeeeee;strokeColor=#36393d;fontSize=16;" parent="1" vertex="1">
          <mxGeometry x="1040" y="520" width="161" height="40" as="geometry" />
        </mxCell>
        <mxCell id="yl8OOn2uJS8dKnShgbuV-58" style="edgeStyle=orthogonalEdgeStyle;rounded=0;orthogonalLoop=1;jettySize=auto;html=1;exitX=1;exitY=0.5;exitDx=0;exitDy=0;entryX=0;entryY=0.5;entryDx=0;entryDy=0;fontSize=16;" parent="1" source="yl8OOn2uJS8dKnShgbuV-42" target="yl8OOn2uJS8dKnShgbuV-48" edge="1">
          <mxGeometry relative="1" as="geometry" />
        </mxCell>
        <mxCell id="yl8OOn2uJS8dKnShgbuV-59" style="edgeStyle=orthogonalEdgeStyle;rounded=0;orthogonalLoop=1;jettySize=auto;html=1;exitX=1;exitY=0.5;exitDx=0;exitDy=0;entryX=0;entryY=0.5;entryDx=0;entryDy=0;fontSize=16;" parent="1" source="yl8OOn2uJS8dKnShgbuV-42" target="yl8OOn2uJS8dKnShgbuV-49" edge="1">
          <mxGeometry relative="1" as="geometry" />
        </mxCell>
        <mxCell id="yl8OOn2uJS8dKnShgbuV-60" style="edgeStyle=orthogonalEdgeStyle;rounded=0;orthogonalLoop=1;jettySize=auto;html=1;exitX=1;exitY=0.5;exitDx=0;exitDy=0;entryX=0;entryY=0.5;entryDx=0;entryDy=0;fontSize=16;" parent="1" source="yl8OOn2uJS8dKnShgbuV-42" target="yl8OOn2uJS8dKnShgbuV-51" edge="1">
          <mxGeometry relative="1" as="geometry" />
        </mxCell>
        <mxCell id="yl8OOn2uJS8dKnShgbuV-61" style="edgeStyle=orthogonalEdgeStyle;rounded=0;orthogonalLoop=1;jettySize=auto;html=1;exitX=1;exitY=0.5;exitDx=0;exitDy=0;entryX=0;entryY=0.5;entryDx=0;entryDy=0;fontSize=16;" parent="1" source="yl8OOn2uJS8dKnShgbuV-42" target="yl8OOn2uJS8dKnShgbuV-53" edge="1">
          <mxGeometry relative="1" as="geometry" />
        </mxCell>
        <mxCell id="yl8OOn2uJS8dKnShgbuV-120" value="&amp;nbsp;generates/&amp;nbsp;&lt;div style=&quot;font-size: 16px;&quot;&gt;updates&amp;nbsp;&lt;/div&gt;" style="edgeLabel;html=1;align=center;verticalAlign=middle;resizable=0;points=[];labelBorderColor=default;fontSize=16;" parent="yl8OOn2uJS8dKnShgbuV-61" vertex="1" connectable="0">
          <mxGeometry x="-0.8938" y="1" relative="1" as="geometry">
            <mxPoint x="39" y="221" as="offset" />
          </mxGeometry>
        </mxCell>
        <mxCell id="z5oKEGdk7ufxL6Iy2v38-1" style="edgeStyle=orthogonalEdgeStyle;rounded=0;orthogonalLoop=1;jettySize=auto;html=1;exitX=1;exitY=0.5;exitDx=0;exitDy=0;entryX=0;entryY=0.5;entryDx=0;entryDy=0;" edge="1" parent="1" source="yl8OOn2uJS8dKnShgbuV-42" target="yl8OOn2uJS8dKnShgbuV-52">
          <mxGeometry relative="1" as="geometry" />
        </mxCell>
        <mxCell id="yl8OOn2uJS8dKnShgbuV-42" value="&lt;font style=&quot;font-size: 16px;&quot; face=&quot;Courier New&quot;&gt;src/init.py&lt;/font&gt;" style="rounded=1;whiteSpace=wrap;html=1;fillColor=#cce5ff;strokeColor=#36393d;fontSize=16;" parent="1" vertex="1">
          <mxGeometry x="120" y="360" width="200" height="80" as="geometry" />
        </mxCell>
        <mxCell id="yl8OOn2uJS8dKnShgbuV-65" style="edgeStyle=orthogonalEdgeStyle;rounded=0;orthogonalLoop=1;jettySize=auto;html=1;entryX=0;entryY=0.5;entryDx=0;entryDy=0;fontSize=16;" parent="1" source="yl8OOn2uJS8dKnShgbuV-43" target="yl8OOn2uJS8dKnShgbuV-45" edge="1">
          <mxGeometry relative="1" as="geometry" />
        </mxCell>
        <mxCell id="yl8OOn2uJS8dKnShgbuV-122" value="&amp;nbsp;populates&amp;nbsp;" style="edgeLabel;html=1;align=center;verticalAlign=middle;resizable=0;points=[];labelBorderColor=default;fontSize=16;" parent="yl8OOn2uJS8dKnShgbuV-65" vertex="1" connectable="0">
          <mxGeometry x="-0.044" y="-1" relative="1" as="geometry">
            <mxPoint x="3" y="-1" as="offset" />
          </mxGeometry>
        </mxCell>
        <mxCell id="yl8OOn2uJS8dKnShgbuV-90" style="edgeStyle=orthogonalEdgeStyle;rounded=0;orthogonalLoop=1;jettySize=auto;html=1;fontSize=16;" parent="1" source="yl8OOn2uJS8dKnShgbuV-43" target="yl8OOn2uJS8dKnShgbuV-41" edge="1">
          <mxGeometry relative="1" as="geometry" />
        </mxCell>
        <mxCell id="yl8OOn2uJS8dKnShgbuV-94" style="edgeStyle=orthogonalEdgeStyle;rounded=0;orthogonalLoop=1;jettySize=auto;html=1;exitX=0;exitY=0.75;exitDx=0;exitDy=0;entryX=1;entryY=0.5;entryDx=0;entryDy=0;fontSize=16;" parent="1" source="yl8OOn2uJS8dKnShgbuV-43" target="yl8OOn2uJS8dKnShgbuV-50" edge="1">
          <mxGeometry relative="1" as="geometry" />
        </mxCell>
        <mxCell id="yl8OOn2uJS8dKnShgbuV-43" value="&lt;font style=&quot;font-size: 16px;&quot; face=&quot;Courier New&quot;&gt;src/main.py&lt;/font&gt;" style="rounded=1;whiteSpace=wrap;html=1;fillColor=#cce5ff;strokeColor=#36393d;fontSize=16;" parent="1" vertex="1">
          <mxGeometry x="1001" y="320" width="240" height="120" as="geometry" />
        </mxCell>
        <mxCell id="yl8OOn2uJS8dKnShgbuV-121" style="edgeStyle=orthogonalEdgeStyle;rounded=0;orthogonalLoop=1;jettySize=auto;html=1;fontSize=16;" parent="1" source="yl8OOn2uJS8dKnShgbuV-44" target="yl8OOn2uJS8dKnShgbuV-46" edge="1">
          <mxGeometry relative="1" as="geometry" />
        </mxCell>
        <mxCell id="yl8OOn2uJS8dKnShgbuV-123" value="&amp;nbsp;populates&amp;nbsp;" style="edgeLabel;html=1;align=center;verticalAlign=middle;resizable=0;points=[];labelBorderColor=default;fontSize=16;" parent="yl8OOn2uJS8dKnShgbuV-121" vertex="1" connectable="0">
          <mxGeometry x="-0.1" y="1" relative="1" as="geometry">
            <mxPoint x="-1" y="4" as="offset" />
          </mxGeometry>
        </mxCell>
        <mxCell id="yl8OOn2uJS8dKnShgbuV-44" value="&lt;font style=&quot;font-size: 16px;&quot; face=&quot;Courier New&quot;&gt;src/occupancy.py&lt;/font&gt;" style="rounded=1;whiteSpace=wrap;html=1;fillColor=#cce5ff;strokeColor=#36393d;fontSize=16;" parent="1" vertex="1">
          <mxGeometry x="1440" y="680" width="160" height="80" as="geometry" />
        </mxCell>
        <mxCell id="yl8OOn2uJS8dKnShgbuV-103" style="edgeStyle=orthogonalEdgeStyle;rounded=0;orthogonalLoop=1;jettySize=auto;html=1;exitX=0.5;exitY=1;exitDx=0;exitDy=0;entryX=0.5;entryY=0;entryDx=0;entryDy=0;fontSize=16;" parent="1" source="yl8OOn2uJS8dKnShgbuV-45" target="yl8OOn2uJS8dKnShgbuV-44" edge="1">
          <mxGeometry relative="1" as="geometry" />
        </mxCell>
        <mxCell id="yl8OOn2uJS8dKnShgbuV-127" style="edgeStyle=orthogonalEdgeStyle;rounded=0;orthogonalLoop=1;jettySize=auto;html=1;exitX=0.5;exitY=0;exitDx=0;exitDy=0;entryX=0.75;entryY=1;entryDx=0;entryDy=0;fontSize=16;" parent="1" source="yl8OOn2uJS8dKnShgbuV-45" target="yl8OOn2uJS8dKnShgbuV-39" edge="1">
          <mxGeometry relative="1" as="geometry" />
        </mxCell>
        <mxCell id="yl8OOn2uJS8dKnShgbuV-45" value="&lt;font style=&quot;font-size: 16px;&quot; face=&quot;Courier New&quot;&gt;data/refined_data.db&lt;/font&gt;" style="rounded=0;whiteSpace=wrap;html=1;fillColor=#1ba1e2;fontColor=#ffffff;strokeColor=#006EAF;fontSize=16;" parent="1" vertex="1">
          <mxGeometry x="1400" y="360" width="240" height="40" as="geometry" />
        </mxCell>
        <mxCell id="yl8OOn2uJS8dKnShgbuV-46" value="&lt;font style=&quot;font-size: 16px;&quot; face=&quot;Courier New&quot;&gt;data/occupancy.db&lt;/font&gt;" style="rounded=0;whiteSpace=wrap;html=1;fillColor=#1ba1e2;fontColor=#ffffff;strokeColor=#006EAF;fontSize=16;" parent="1" vertex="1">
          <mxGeometry x="1420" y="840" width="200" height="40" as="geometry" />
        </mxCell>
        <mxCell id="yl8OOn2uJS8dKnShgbuV-79" style="edgeStyle=orthogonalEdgeStyle;rounded=0;orthogonalLoop=1;jettySize=auto;html=1;entryX=0;entryY=0.25;entryDx=0;entryDy=0;fontSize=16;" parent="1" source="yl8OOn2uJS8dKnShgbuV-47" target="yl8OOn2uJS8dKnShgbuV-43" edge="1">
          <mxGeometry relative="1" as="geometry" />
        </mxCell>
        <mxCell id="yl8OOn2uJS8dKnShgbuV-47" value="&lt;font style=&quot;font-size: 16px;&quot; face=&quot;Courier New&quot;&gt;data/zValue_to_pValue.json&lt;/font&gt;" style="rounded=0;whiteSpace=wrap;html=1;fontSize=16;" parent="1" vertex="1">
          <mxGeometry x="440" y="520" width="400" height="40" as="geometry" />
        </mxCell>
        <mxCell id="yl8OOn2uJS8dKnShgbuV-74" style="edgeStyle=orthogonalEdgeStyle;rounded=0;orthogonalLoop=1;jettySize=auto;html=1;entryX=0;entryY=0.25;entryDx=0;entryDy=0;fontSize=16;" parent="1" source="yl8OOn2uJS8dKnShgbuV-48" target="yl8OOn2uJS8dKnShgbuV-43" edge="1">
          <mxGeometry relative="1" as="geometry" />
        </mxCell>
        <mxCell id="yl8OOn2uJS8dKnShgbuV-48" value="&lt;font style=&quot;font-size: 16px;&quot; face=&quot;Courier New&quot;&gt;data/objects/floor_trees.pkl&lt;/font&gt;" style="rounded=0;whiteSpace=wrap;html=1;fontSize=16;" parent="1" vertex="1">
          <mxGeometry x="440" y="200" width="400" height="40" as="geometry" />
        </mxCell>
        <mxCell id="yl8OOn2uJS8dKnShgbuV-75" style="edgeStyle=orthogonalEdgeStyle;rounded=0;orthogonalLoop=1;jettySize=auto;html=1;entryX=0;entryY=0.25;entryDx=0;entryDy=0;fontSize=16;" parent="1" source="yl8OOn2uJS8dKnShgbuV-49" target="yl8OOn2uJS8dKnShgbuV-43" edge="1">
          <mxGeometry relative="1" as="geometry" />
        </mxCell>
        <mxCell id="yl8OOn2uJS8dKnShgbuV-49" value="&lt;font style=&quot;font-size: 16px;&quot; face=&quot;Courier New&quot;&gt;data/objects/room_geometries.pkl&lt;/font&gt;" style="rounded=0;whiteSpace=wrap;html=1;fontSize=16;" parent="1" vertex="1">
          <mxGeometry x="440" y="280" width="400" height="40" as="geometry" />
        </mxCell>
        <mxCell id="yl8OOn2uJS8dKnShgbuV-95" style="edgeStyle=orthogonalEdgeStyle;rounded=0;orthogonalLoop=1;jettySize=auto;html=1;exitX=1;exitY=0.5;exitDx=0;exitDy=0;entryX=0;entryY=0.75;entryDx=0;entryDy=0;fontSize=16;" parent="1" source="yl8OOn2uJS8dKnShgbuV-50" target="yl8OOn2uJS8dKnShgbuV-43" edge="1">
          <mxGeometry relative="1" as="geometry" />
        </mxCell>
        <mxCell id="yl8OOn2uJS8dKnShgbuV-50" value="&lt;font style=&quot;font-size: 16px;&quot; face=&quot;Courier New&quot;&gt;data/objects/recent_devices.pkl&lt;/font&gt;" style="rounded=0;whiteSpace=wrap;html=1;fontSize=16;" parent="1" vertex="1">
          <mxGeometry x="520" y="600" width="400" height="40" as="geometry" />
        </mxCell>
        <mxCell id="yl8OOn2uJS8dKnShgbuV-76" style="edgeStyle=orthogonalEdgeStyle;rounded=0;orthogonalLoop=1;jettySize=auto;html=1;entryX=0;entryY=0.25;entryDx=0;entryDy=0;fontSize=16;" parent="1" source="yl8OOn2uJS8dKnShgbuV-51" target="yl8OOn2uJS8dKnShgbuV-43" edge="1">
          <mxGeometry relative="1" as="geometry" />
        </mxCell>
        <mxCell id="yl8OOn2uJS8dKnShgbuV-51" value="&lt;font style=&quot;font-size: 16px;&quot; face=&quot;Courier New&quot;&gt;data/id_mappings/floorId_to_roomIds.json&lt;/font&gt;" style="rounded=0;whiteSpace=wrap;html=1;fontSize=16;" parent="1" vertex="1">
          <mxGeometry x="440" y="360" width="400" height="40" as="geometry" />
        </mxCell>
        <mxCell id="yl8OOn2uJS8dKnShgbuV-77" style="edgeStyle=orthogonalEdgeStyle;rounded=0;orthogonalLoop=1;jettySize=auto;html=1;entryX=0;entryY=0.25;entryDx=0;entryDy=0;fontSize=16;" parent="1" source="yl8OOn2uJS8dKnShgbuV-52" target="yl8OOn2uJS8dKnShgbuV-43" edge="1">
          <mxGeometry relative="1" as="geometry" />
        </mxCell>
        <mxCell id="yl8OOn2uJS8dKnShgbuV-52" value="&lt;font style=&quot;font-size: 16px;&quot; face=&quot;Courier New&quot;&gt;data/id_mappings/floorId_to_mapId.json&lt;/font&gt;" style="rounded=0;whiteSpace=wrap;html=1;fontSize=16;" parent="1" vertex="1">
          <mxGeometry x="440" y="440" width="400" height="40" as="geometry" />
        </mxCell>
        <mxCell id="yl8OOn2uJS8dKnShgbuV-101" style="edgeStyle=orthogonalEdgeStyle;rounded=0;orthogonalLoop=1;jettySize=auto;html=1;exitX=1;exitY=0.5;exitDx=0;exitDy=0;entryX=0;entryY=0.25;entryDx=0;entryDy=0;fontSize=16;" parent="1" source="yl8OOn2uJS8dKnShgbuV-53" target="yl8OOn2uJS8dKnShgbuV-44" edge="1">
          <mxGeometry relative="1" as="geometry" />
        </mxCell>
        <mxCell id="yl8OOn2uJS8dKnShgbuV-53" value="&lt;font style=&quot;font-size: 16px;&quot; face=&quot;Courier New&quot;&gt;data/id_mappings/department_mappings.json&lt;/font&gt;" style="rounded=0;whiteSpace=wrap;html=1;fontSize=16;" parent="1" vertex="1">
          <mxGeometry x="440" y="680" width="400" height="40" as="geometry" />
        </mxCell>
        <mxCell id="yl8OOn2uJS8dKnShgbuV-78" style="edgeStyle=orthogonalEdgeStyle;rounded=0;orthogonalLoop=1;jettySize=auto;html=1;entryX=0;entryY=0.25;entryDx=0;entryDy=0;fontSize=16;" parent="1" source="yl8OOn2uJS8dKnShgbuV-55" target="yl8OOn2uJS8dKnShgbuV-43" edge="1">
          <mxGeometry relative="1" as="geometry" />
        </mxCell>
        <mxCell id="z5oKEGdk7ufxL6Iy2v38-5" style="edgeStyle=orthogonalEdgeStyle;rounded=0;orthogonalLoop=1;jettySize=auto;html=1;exitX=0;exitY=0.5;exitDx=0;exitDy=0;entryX=0.75;entryY=0;entryDx=0;entryDy=0;" edge="1" parent="1" source="yl8OOn2uJS8dKnShgbuV-55" target="yl8OOn2uJS8dKnShgbuV-42">
          <mxGeometry relative="1" as="geometry" />
        </mxCell>
        <mxCell id="yl8OOn2uJS8dKnShgbuV-55" value="&lt;font style=&quot;font-size: 16px;&quot; face=&quot;Courier New&quot;&gt;data/floorplans-main/.../state.yaml&lt;/font&gt;" style="rounded=0;whiteSpace=wrap;html=1;fontSize=16;" parent="1" vertex="1">
          <mxGeometry x="440" y="120" width="400" height="40" as="geometry" />
        </mxCell>
        <mxCell id="yl8OOn2uJS8dKnShgbuV-107" style="edgeStyle=orthogonalEdgeStyle;rounded=0;orthogonalLoop=1;jettySize=auto;html=1;fontSize=16;" parent="1" source="yl8OOn2uJS8dKnShgbuV-56" target="yl8OOn2uJS8dKnShgbuV-38" edge="1">
          <mxGeometry relative="1" as="geometry" />
        </mxCell>
        <mxCell id="yl8OOn2uJS8dKnShgbuV-111" value="&amp;nbsp;provides keys&amp;nbsp;" style="edgeLabel;html=1;align=center;verticalAlign=middle;resizable=0;points=[];labelBorderColor=default;fontSize=16;" parent="yl8OOn2uJS8dKnShgbuV-107" vertex="1" connectable="0">
          <mxGeometry x="-0.2324" y="2" relative="1" as="geometry">
            <mxPoint x="-2" y="9" as="offset" />
          </mxGeometry>
        </mxCell>
        <mxCell id="yl8OOn2uJS8dKnShgbuV-108" style="edgeStyle=orthogonalEdgeStyle;rounded=0;orthogonalLoop=1;jettySize=auto;html=1;fontSize=16;" parent="1" source="yl8OOn2uJS8dKnShgbuV-56" target="yl8OOn2uJS8dKnShgbuV-37" edge="1">
          <mxGeometry relative="1" as="geometry" />
        </mxCell>
        <mxCell id="yl8OOn2uJS8dKnShgbuV-109" style="edgeStyle=orthogonalEdgeStyle;rounded=0;orthogonalLoop=1;jettySize=auto;html=1;fontSize=16;" parent="1" source="yl8OOn2uJS8dKnShgbuV-56" target="yl8OOn2uJS8dKnShgbuV-39" edge="1">
          <mxGeometry relative="1" as="geometry" />
        </mxCell>
        <mxCell id="yl8OOn2uJS8dKnShgbuV-110" value="&lt;font style=&quot;font-size: 16px;&quot;&gt;&amp;nbsp;provides keys&amp;nbsp;&lt;/font&gt;" style="edgeLabel;html=1;align=center;verticalAlign=middle;resizable=0;points=[];labelBorderColor=default;fontSize=16;" parent="yl8OOn2uJS8dKnShgbuV-109" vertex="1" connectable="0">
          <mxGeometry x="-0.4792" y="-2" relative="1" as="geometry">
            <mxPoint as="offset" />
          </mxGeometry>
        </mxCell>
        <mxCell id="yl8OOn2uJS8dKnShgbuV-56" value=".env" style="rounded=0;whiteSpace=wrap;html=1;fontSize=16;" parent="1" vertex="1">
          <mxGeometry x="60" y="40" width="120" height="40" as="geometry" />
        </mxCell>
        <mxCell id="yl8OOn2uJS8dKnShgbuV-112" value="&lt;font style=&quot;font-size: 16px;&quot; face=&quot;Courier New&quot;&gt;executable&lt;/font&gt;" style="rounded=1;whiteSpace=wrap;html=1;fillColor=#cce5ff;strokeColor=#36393d;fontSize=16;" parent="1" vertex="1">
          <mxGeometry x="101" y="920" width="120" height="40" as="geometry" />
        </mxCell>
        <mxCell id="yl8OOn2uJS8dKnShgbuV-115" value="&lt;font style=&quot;font-size: 16px;&quot; face=&quot;Courier New&quot;&gt;api input&lt;/font&gt;" style="rounded=1;whiteSpace=wrap;html=1;fillColor=#cdeb8b;strokeColor=#36393d;fontSize=16;" parent="1" vertex="1">
          <mxGeometry x="261" y="920" width="120" height="40" as="geometry" />
        </mxCell>
        <mxCell id="yl8OOn2uJS8dKnShgbuV-116" value="&lt;font style=&quot;font-size: 16px;&quot; face=&quot;Courier New&quot;&gt;api output&lt;/font&gt;" style="rounded=1;whiteSpace=wrap;html=1;fillColor=#ffcccc;strokeColor=#36393d;fontSize=16;" parent="1" vertex="1">
          <mxGeometry x="431" y="920" width="120" height="40" as="geometry" />
        </mxCell>
        <mxCell id="yl8OOn2uJS8dKnShgbuV-118" value="&lt;font style=&quot;font-size: 16px;&quot; face=&quot;Courier New&quot;&gt;utility&lt;/font&gt;" style="rounded=1;whiteSpace=wrap;html=1;fillColor=#eeeeee;strokeColor=#36393d;fontSize=16;" parent="1" vertex="1">
          <mxGeometry x="601" y="920" width="120" height="40" as="geometry" />
        </mxCell>
        <mxCell id="yl8OOn2uJS8dKnShgbuV-119" value="&lt;font style=&quot;font-size: 16px;&quot; face=&quot;Courier New&quot;&gt;database&lt;/font&gt;" style="rounded=0;whiteSpace=wrap;html=1;fillColor=#1ba1e2;strokeColor=#006EAF;fontColor=#ffffff;fontSize=16;" parent="1" vertex="1">
          <mxGeometry x="101" y="990" width="120" height="40" as="geometry" />
        </mxCell>
        <mxCell id="yl8OOn2uJS8dKnShgbuV-130" value="&lt;b style=&quot;font-size: 16px;&quot;&gt;Legend&lt;/b&gt;" style="rounded=0;whiteSpace=wrap;html=1;fontSize=16;" parent="1" vertex="1">
          <mxGeometry x="81" y="880" width="1160" height="20" as="geometry" />
        </mxCell>
      </root>
    </mxGraphModel>
  </diagram>
</mxfile>
